# xmcd
#
# Track frame offsets: 
#        150
#        11284
#        24303
#        35948
#
# Disc length: 973 seconds
#
# Revision: 1
# Processed by: cddbd v1.5.2PL0 Copyright (c) Steve Scherf et al.
# Submitted via: ExactAudioCopy v0.95b4
#
DISCID=2503cb04
DTITLE=Incriminated - Hypocricide (EP)
DYEAR=2004
DGENRE=Black Metal
TTITLE0=Hypocriticide
TTITLE1=Desecrate
TTITLE2=Ugliness
TTITLE3=Lambs Of The Deceitful Shepherd
EXTD=
EXTT0=
EXTT1=
EXTT2=
EXTT3=
PLAYORDER=
